<?xml version="1.0" encoding="UTF-8"?>
<svg width="14px" height="10px" viewBox="0 0 14 10" version="1.1" xmlns="http://www.w3.org/2000/svg" xmlns:xlink="http://www.w3.org/1999/xlink">
    <title>形状</title>
    <g id="右侧联播模块统整" stroke="none" stroke-width="1" fill="none" fill-rule="evenodd">
        <g id="web详情页联播模块优化" transform="translate(-1007.000000, -536.000000)" fill="#999999" fill-rule="nonzero">
            <g id="编组-3备份-8" transform="translate(906.000000, 321.000000)">
                <g id="编组" transform="translate(1.000000, 164.000000)">
                    <g id="查看" transform="translate(100.000000, 51.000000)">
                        <path d="M6.89072252,0.0925629704 C2.33763603,0.0925629704 0,4.89967536 0,4.89967536 C0,4.89967536 1.76400094,9.70739709 6.89070899,9.70739709 C11.533382,9.70739709 13.7810663,4.91840903 13.7810663,4.91840903 C13.7810663,4.91840903 11.5154593,0.0925629704 6.89070899,0.0925629704 L6.89072252,0.0925629704 Z M6.90108388,7.90438808 C5.23630038,7.90438808 4.03290843,6.58970138 4.03290843,4.89959034 C4.03290843,3.20932341 5.23636801,1.8950335 6.90108388,1.8950335 C8.56571858,1.8950335 9.76909701,3.20923839 9.76909701,4.89959034 C9.76909701,6.58970138 8.56571858,7.90438808 6.90108388,7.90438808 Z M6.90108388,3.09664896 C5.9495568,3.09890532 5.18017861,3.9338713 5.18017861,4.89960451 C5.18017861,5.8648134 5.94957033,6.70248599 6.90108388,6.70248599 C7.85244864,6.70248599 8.62182683,5.8648134 8.62182683,4.89959034 C8.62182683,3.93355955 7.85246216,3.0947533 6.90108388,3.09664896 L6.90108388,3.09664896 Z" id="形状"></path>
                    </g>
                </g>
            </g>
        </g>
    </g>
</svg>