<svg t="1641540753102" viewBox="0 0 1901 1024" version="1.1" xmlns="http://www.w3.org/2000/svg" p-id="2673" width="200" height="200" class="icon"><path d="M146.285714 170.349714h1609.142857V877.714286H146.285714z" fill="#FFFFFF" p-id="2674"></path><path d="M1763.766857 73.142857c24.868571 0 44.544 18.285714 43.593143 49.444572v747.52a48.859429 48.859429 0 0 1-49.737143 49.298285H122.88a48.859429 48.859429 0 0 1-49.737143-49.371428V208.969143c0-24.649143 18.651429-49.371429 49.737143-49.371429H1148.342857v-37.010285c0-24.722286 18.651429-49.444571 49.737143-49.444572h565.613714zM265.801143 264.630857h-49.737143c-18.578286 0-37.302857 18.578286-37.302857 37.010286v488.082286c0 18.578286 18.724571 37.010286 37.302857 37.010285h298.422857c18.651429 0 37.302857-18.432 37.302857-37.010285v-49.371429c0-18.651429-18.651429-37.156571-37.302857-37.156571h-211.382857v-401.554286c0-18.432-18.651429-37.010286-37.302857-37.010286z m447.634286 0h-49.737143c-18.651429 0-37.302857 18.578286-37.302857 37.010286v302.811428c-0.365714 12.653714 0 30.427429 6.217142 36.937143l174.08 172.982857c6.875429 6.875429 19.529143 9.947429 29.403429 11.264l10.020571 0.950858h8.045715l10.020571-0.950858c9.874286-1.316571 22.601143-4.388571 29.476572-11.264l174.08-172.982857c6.144-6.070857 18.578286-18.432 18.578285-30.866285V307.931429c0-18.505143-18.651429-37.083429-37.302857-37.083429h-49.590857c-18.724571 0-37.376 18.578286-37.376 37.083429V585.874286l-105.691429 104.96-105.618285-104.96V301.641143c0-18.432-18.651429-37.010286-37.302857-37.010286zM1658.148571 178.102857h-354.304a49.005714 49.005714 0 0 0-49.737142 49.444572v543.670857c0 24.649143 18.651429 49.371429 49.737142 49.371428h354.304c24.868571 0 49.737143-18.505143 49.737143-49.371428V227.474286a48.932571 48.932571 0 0 0-49.737143-49.444572zM1552.457143 295.497143c16.603429 0 33.206857 14.628571 36.717714 30.866286l0.658286 6.144v333.677714c0 16.457143-14.774857 32.914286-31.158857 36.352l-6.217143 0.658286h-142.921143c-16.603429 0-33.133714-14.628571-36.571429-30.866286l-0.731428-6.144V332.580571c0-16.457143 14.701714-32.914286 31.085714-36.352l6.217143-0.658285h142.921143z" fill="#C0C0C0" p-id="2675" class="bg"></path></svg>