<svg t="1641540697281" viewBox="0 0 1901 1024" version="1.1" xmlns="http://www.w3.org/2000/svg" p-id="2545" width="200" height="200" class="icon"><path d="M146.285714 169.984h1609.142857v707.364571H146.285714z" fill="#FFFFFF" p-id="2546"></path><path d="M1779.565714 73.142857c24.795429 0 49.590857 24.722286 43.446857 49.444572v747.446857a48.859429 48.859429 0 0 1-49.664 49.371428H144.603429a48.786286 48.786286 0 0 1-49.517715-49.371428V209.042286c0-24.722286 18.505143-49.444571 49.517715-49.444572h1021.805714v-37.010285c0-24.722286 18.651429-49.444571 49.590857-49.444572h563.638857z m-272.530285 117.467429h-123.830858c-18.505143 0-37.083429 18.505143-37.083428 37.010285v49.444572c0 18.505143 18.578286 37.083429 37.083428 37.083428h37.229715v389.12h-49.590857c-18.651429 0-37.156571 18.505143-37.156572 37.083429v49.371429c0 18.578286 18.505143 37.083429 37.156572 37.083428h223.378285c18.578286 0 38.326857-18.505143 38.326857-37.083428v-49.152c0-18.578286-19.748571-37.522286-38.326857-37.522286h-49.956571v-475.428572c0-18.505143-18.651429-37.010286-37.229714-37.010285zM732.964571 264.630857h-49.517714c-18.578286 0-37.156571 18.578286-37.156571 37.083429v308.443428c0.146286 12.214857 0.950857 27.940571 6.217143 31.305143l173.348571 172.909714c12.434286 12.434286 43.446857 12.434286 43.446857 12.434286h1.024c5.632-0.219429 31.305143-1.462857 42.276572-12.434286l173.421714-172.909714c1.389714-1.462857 3.072-2.852571 4.900571-4.388571 6.217143-5.339429 13.604571-11.702857 13.604572-20.260572V307.858286c0-18.505143-18.505143-37.010286-37.083429-37.010286h-49.517714c-18.651429 0-37.302857 18.505143-37.302857 37.010286v277.942857L875.52 690.907429 770.194286 585.874286V301.714286c0-18.505143-18.505143-37.083429-37.156572-37.083429z m-445.878857 0h-49.590857c-18.505143 0-37.083429 18.578286-37.083428 37.083429v488.009143c0 18.505143 18.578286 37.010286 37.083428 37.010285h297.325714c18.505143 0 37.156571-18.505143 37.156572-37.010285v-49.444572c0-18.578286-18.578286-37.083429-37.156572-37.083428H324.242286v-401.554286c0-18.432-18.578286-37.010286-37.156572-37.010286z" fill="#C0C0C0" p-id="2547" class="bg"></path></svg>