<svg t="1642057823046" viewBox="0 0 1901 1024" version="1.1" xmlns="http://www.w3.org/2000/svg" p-id="2545" width="200" height="200" class="icon"><path d="M146.285714 171.739429h1609.142857v707.364571H146.285714z" fill="#FFFFFF" p-id="2546"></path><path d="M1779.565714 73.142857c24.795429 0 49.590857 24.722286 43.446857 49.444572v747.52a48.786286 48.786286 0 0 1-49.590857 49.298285H144.603429a48.713143 48.713143 0 0 1-49.590858-49.371428V208.969143c0-24.649143 18.578286-49.371429 49.590858-49.371429h1021.805714v-37.010285c0-24.722286 18.578286-49.444571 49.517714-49.444572h563.565714zM733.037714 264.630857h-49.590857c-18.578286 0-37.156571 18.578286-37.156571 37.010286v302.811428c0 13.897143 0 33.060571 6.217143 36.937143l173.348571 172.982857c12.434286 12.434286 43.373714 12.434286 43.373714 12.434286s31.012571 0 43.373715-12.434286l185.782857-172.982857c6.217143-6.070857 6.217143-18.432 6.217143-30.866285V307.931429c0-18.505143-18.578286-37.083429-37.156572-37.083429h-49.517714c-18.651429 0-37.156571 18.578286-37.156572 37.083429V585.874286l-105.325714 104.96-105.325714-104.96V301.641143c0-18.432-18.505143-37.010286-37.083429-37.010286z m-445.952 0h-49.517714c-18.578286 0-37.156571 18.578286-37.156571 37.010286v488.082286c0 18.578286 18.578286 37.010286 37.156571 37.010285h297.252571c18.578286 0 37.156571-18.432 37.156572-37.010285v-49.371429c0-18.651429-18.578286-37.156571-37.156572-37.156571H324.242286v-401.554286c0-18.432-18.578286-37.010286-37.156572-37.010286z m1399.661715-92.672h-384c-18.578286 0-37.083429 18.505143-37.083429 37.010286v49.444571c0 18.505143 18.505143 37.083429 37.083429 37.083429h297.252571v142.043428h-297.252571c-18.578286 0-37.083429 18.505143-37.083429 37.083429v315.099429c0 18.505143 18.505143 37.010286 37.083429 37.010285h384c18.578286 0 37.156571-18.505143 37.156571-37.010285v-49.444572c0-18.578286-18.578286-37.156571-37.156571-37.156571h-297.179429V561.152h297.179429c18.578286 0 37.156571-18.578286 37.156571-37.083429V208.969143c0-18.505143-18.578286-37.010286-37.156571-37.010286z" fill="#8BD29B" p-id="2547"></path></svg>