<svg t="1641540850378" viewBox="0 0 1901 1024" version="1.1" xmlns="http://www.w3.org/2000/svg" p-id="2929" width="200" height="200" class="icon"><path d="M154.916571 159.890286h1609.142858v707.364571h-1609.142858z" fill="#FFFFFF" p-id="2930"></path><path d="M1757.622857 73.142857c24.795429 0 49.517714 24.722286 43.373714 49.444572v747.446857a48.859429 48.859429 0 0 1-49.590857 49.371428H122.660571A48.786286 48.786286 0 0 1 73.142857 870.034286V209.042286c0-24.722286 18.578286-49.444571 49.517714-49.444572h1021.805715v-37.010285c0-24.722286 18.651429-49.444571 49.590857-49.444572h563.565714zM710.948571 264.630857h-49.517714c-18.578286 0-37.156571 18.578286-37.156571 37.083429v309.248c0.146286 13.238857 0.877714 26.770286 6.217143 30.500571l173.348571 172.909714c12.434286 12.434286 43.373714 12.434286 43.373714 12.434286h1.097143c5.558857-0.219429 31.232-1.462857 42.276572-12.434286l185.782857-172.909714c6.217143-6.217143 6.217143-18.505143 6.217143-30.866286V307.858286c0-18.505143-18.578286-37.010286-37.156572-37.010286h-49.517714c-18.651429 0-37.229714 18.505143-37.229714 37.010286v277.942857l-105.325715 105.033143L748.251429 585.874286V301.714286c0-18.505143-18.651429-37.083429-37.156572-37.083429z m-445.878857 0h-49.590857c-18.578286 0-37.156571 18.578286-37.156571 37.083429v488.009143c0 18.505143 18.578286 37.010286 37.156571 37.010285h297.325714c18.578286 0 37.156571-18.505143 37.156572-37.010285v-49.444572c0-18.578286-18.578286-37.083429-37.156572-37.083428h-210.651428v-401.554286c0-18.432-18.505143-37.010286-37.083429-37.010286z m1065.179429-92.672h-49.517714c-18.578286 0-37.083429 18.505143-37.083429 37.010286v315.026286c0 18.578286 18.505143 37.083429 37.083429 37.083428h297.252571v228.571429c0 18.505143 18.578286 37.083429 37.229714 37.083428h49.517715c18.578286 0 37.156571-18.578286 37.156571-37.083428V208.969143c0-18.505143-18.578286-37.010286-37.156571-37.010286h-49.517715c-18.651429 0-37.229714 18.505143-37.229714 37.010286v228.571428h-210.505143V208.969143c0-18.505143-18.651429-37.010286-37.229714-37.010286z" fill="#FEBB8B" p-id="2931" class="bg"></path></svg>