<svg t="1641540971221" viewBox="0 0 1901 1024" version="1.1" xmlns="http://www.w3.org/2000/svg" p-id="3057" width="200" height="200" class="icon"><path d="M154.916571 169.691429h1609.142858v707.364571h-1609.142858z" fill="#FFFFFF" p-id="3058"></path><path d="M1779.565714 73.142857c24.795429 0 49.590857 24.722286 43.446857 49.444572v747.446857a48.859429 48.859429 0 0 1-49.590857 49.371428H144.603429a48.786286 48.786286 0 0 1-49.590858-49.371428V209.042286c0-24.722286 18.578286-49.444571 49.590858-49.444572h1021.805714v-37.010285c0-24.722286 18.578286-49.444571 49.517714-49.444572h563.565714zM733.037714 264.630857h-49.590857c-18.578286 0-37.156571 18.578286-37.156571 37.083429v302.665143c0 12.507429 0 31.232 6.217143 37.083428l173.348571 172.909714c11.044571 10.971429 36.790857 12.214857 42.349714 12.434286h1.024s31.012571 0 43.373715-12.434286l185.782857-172.909714c6.217143-6.217143 6.217143-18.505143 6.217143-30.866286V307.858286c0-18.505143-18.578286-37.010286-37.156572-37.010286h-49.517714c-18.651429 0-37.156571 18.505143-37.156572 37.010286v277.942857l-105.325714 105.033143-105.325714-104.96V301.714286c0-18.505143-18.505143-37.083429-37.083429-37.083429z m-445.952 0h-49.517714c-18.578286 0-37.156571 18.578286-37.156571 37.083429v488.009143c0 18.505143 18.578286 37.010286 37.156571 37.010285h297.252571c18.578286 0 37.156571-18.505143 37.156572-37.010285v-49.444572c0-18.578286-18.578286-37.083429-37.156572-37.083428H324.242286v-401.554286c0-18.432-18.578286-37.010286-37.156572-37.010286z m1399.661715-92.672h-384c-18.578286 0-37.083429 18.505143-37.083429 37.010286v315.026286c0 18.578286 18.505143 37.083429 37.083429 37.083428h297.252571v142.116572h-297.252571c-18.578286 0-37.083429 18.432-37.083429 37.010285v49.444572c0 18.505143 18.505143 37.083429 37.083429 37.083428h384c18.578286 0 37.156571-18.578286 37.156571-37.083428V474.624c0-18.505143-18.578286-37.083429-37.156571-37.083429h-297.179429V301.641143h297.179429c18.578286 0 37.156571-18.505143 37.156571-37.083429v-55.588571c0-18.505143-18.578286-37.010286-37.156571-37.010286z" fill="#EE672A" p-id="3059" class="bg"></path></svg>