<svg t="1641538980838" viewBox="0 0 1901 1024" version="1.1" xmlns="http://www.w3.org/2000/svg" p-id="2673" width="200" height="200" class="icon"><path d="M154.916571 184.758857h1609.142858v707.364572h-1609.142858z" fill="#FFFFFF" p-id="2674"></path><path d="M1779.565714 93.037714c22.674286 0 45.421714 20.772571 44.324572 43.300572l-0.877715 6.144v747.446857c0 22.454857-15.36 44.909714-41.472 48.859428l-8.118857 0.585143H144.603429a48.859429 48.859429 0 0 1-49.005715-41.325714l-0.585143-8.118857V228.937143c0-22.454857 15.36-44.909714 41.398858-48.786286l8.192-0.585143h1021.805714v-37.083428c0-22.454857 15.36-44.909714 41.398857-48.786286l8.118857-0.658286h563.565714z m-92.891428 105.033143h-383.926857c-16.457143 0-32.914286 14.628571-36.425143 30.939429l-0.658286 6.144v574.464c0 16.457143 14.628571 32.914286 30.939429 36.425143l6.144 0.658285h384c16.530286 0 32.987429-14.628571 36.498285-30.939428l0.658286-6.144V494.592c0-16.530286-14.628571-32.914286-31.012571-36.425143l-6.144-0.658286h-297.179429V321.609143h297.179429c16.530286 0 32.987429-14.628571 36.498285-30.939429l0.658286-6.144v-49.371428c0-18.578286-18.578286-37.083429-37.156571-37.083429zM733.110857 284.598857h-49.590857c-18.578286 0-37.156571 18.505143-37.156571 37.010286v302.738286c0 16.749714 0 31.817143 6.217142 37.010285l173.348572 172.909715c7.899429 7.899429 23.259429 10.752 33.426286 11.849142l9.947428 0.585143 8.557714-0.438857c10.093714-0.950857 26.550857-3.657143 34.816-11.995428l185.782858-172.909715c4.973714-4.900571 5.997714-13.824 6.144-23.478857V327.68c0-18.505143-18.505143-37.010286-37.083429-37.010286h-49.517714c-18.651429 0-37.156571 18.505143-37.156572 37.083429v277.942857l-105.325714 104.96-105.325714-104.96V321.609143c0-18.505143-18.505143-37.010286-37.083429-37.010286z m-445.952 0h-49.517714c-16.530286 0-33.060571 14.628571-36.571429 30.866286l-0.585143 6.144v488.009143c0 16.530286 14.628571 32.914286 30.939429 36.425143l6.217143 0.658285h297.252571c16.530286 0 32.987429-14.628571 36.498286-30.939428l0.658286-6.144v-49.371429c0-16.603429-14.628571-32.987429-31.012572-36.425143l-6.144-0.658285H324.242286v-401.554286c0-18.505143-18.578286-37.010286-37.156572-37.010286z m1312.914286 296.448v142.116572h-210.505143V581.046857h210.505143z" fill="#FF0000" p-id="2675" class="bg"></path></svg>