<?xml version="1.0" standalone="no"?><!DOCTYPE svg PUBLIC "-//W3C//DTD SVG 1.1//EN" "http://www.w3.org/Graphics/SVG/1.1/DTD/svg11.dtd"><svg t="1594296900905" class="icon" viewBox="0 0 1024 1024" version="1.1" xmlns="http://www.w3.org/2000/svg" p-id="4748" xmlns:xlink="http://www.w3.org/1999/xlink" width="64" height="64"><defs><style type="text/css"></style></defs><path d="M512 512m-512 0a512 512 0 1 0 1024 0 512 512 0 1 0-1024 0Z" fill="#FFFFFF" p-id="4749"></path><path d="M512 512m-418.909091 0a418.909091 418.909091 0 1 0 837.818182 0 418.909091 418.909091 0 1 0-837.818182 0Z" fill="#FFC62E" p-id="4750"></path><path d="M474.112 763.950545a33.28 33.28 0 0 1-14.056727 4.049455 21.038545 21.038545 0 0 1-21.317818-20.805818 19.549091 19.549091 0 0 1 1.210181-5.864727l40.494546-187.438546-167.656727 0.325818a21.224727 21.224727 0 0 1-21.876364-20.805818 20.433455 20.433455 0 0 1 9.495273-16.849454l250.181818-255.767273c4.608-2.792727 9.541818-4.747636 14.661818-4.794182a21.131636 21.131636 0 0 1 21.364364 20.852364 19.968 19.968 0 0 1-2.792728 9.774545l-40.215272 184.32h167.842909a21.178182 21.178182 0 0 1 21.643636 20.852364 20.293818 20.293818 0 0 1-9.495273 16.942545l-249.483636 255.208727z" fill="#FFFFFF" p-id="4751"></path></svg>