<svg class="copyright-icon" style="width:16px;height:16px;" data-v-aed3e268="" xmlns="http://www.w3.org/2000/svg" xmlns:xlink="http://www.w3.org/1999/xlink" viewBox="0 0 16 16" width="16" height="16"><path d="M3.6893999999999996 5.1036666666666655C2.3498133333333335 7.12952 2.5688666666666666 9.875600000000002 4.346579999999999 11.653333333333332C6.1242600000000005 13.431066666666666 8.8704 13.650133333333333 10.896266666666664 12.310533333333334L3.6893999999999996 5.1036666666666655zM5.103626666666667 3.689440000000001L12.310599999999997 10.896333333333331C13.650066666666667 8.870466666666665 13.43113333333333 6.124313333333333 11.653400000000001 4.346606666666665C9.875666666666667 2.5689266666666666 7.129559999999999 2.349853333333333 5.103626666666667 3.689440000000001zM2.9323533333333334 13.067533333333337C0.13359999999999994 10.268866666666664 0.13359999999999994 5.731153333333332 2.9323533333333334 2.9324C5.731113333333333 0.1336399999999999 10.268799999999999 0.1336399999999999 13.0676 2.9324C15.866399999999995 5.731153333333332 15.866399999999995 10.268866666666664 13.0676 13.067533333333337C10.268799999999999 15.866333333333332 5.731113333333333 15.866333333333332 2.9323533333333334 13.067533333333337z" fill="#fd676f"></path></svg>