<svg style="width:18px;height:18px;" xmlns="http://www.w3.org/2000/svg" xmlns:xlink="http://www.w3.org/1999/xlink" viewBox="0 0 18 18" width="18" height="18">
    <path d="M4.612500000000001 6.186037499999999C4.92315 6.186037499999999 5.175000000000001 6.437872500000001 5.175000000000001 6.748537499999999L5.175000000000001 9.580575C5.175000000000001 10.191075000000001 5.66991 10.686 6.280425000000001 10.686C6.8909325 10.686 7.38585 10.191075000000001 7.38585 9.580575L7.38585 6.748537499999999C7.38585 6.437872500000001 7.637700000000001 6.186037499999999 7.94835 6.186037499999999C8.259 6.186037499999999 8.51085 6.437872500000001 8.51085 6.748537499999999L8.51085 9.580575C8.51085 10.8124125 7.512262499999999 11.811 6.280425000000001 11.811C5.048595000000001 11.811 4.050000000000001 10.8124125 4.050000000000001 9.580575L4.050000000000001 6.748537499999999C4.050000000000001 6.437872500000001 4.3018350000000005 6.186037499999999 4.612500000000001 6.186037499999999z" fill="#9499A0">
    </path>
    <path d="M9.48915 6.748537499999999C9.48915 6.437872500000001 9.7409625 6.186037499999999 10.05165 6.186037499999999L11.79375 6.186037499999999C12.984637500000002 6.186037499999999 13.950000000000001 7.151415 13.950000000000001 8.34225C13.950000000000001 9.5331375 12.984637500000002 10.4985 11.79375 10.4985L10.61415 10.4985L10.61415 11.2485C10.61415 11.55915 10.3623 11.811 10.05165 11.811C9.7409625 11.811 9.48915 11.55915 9.48915 11.2485L9.48915 6.748537499999999zM10.61415 9.3735L11.79375 9.3735C12.3633 9.3735 12.825000000000001 8.9118 12.825000000000001 8.34225C12.825000000000001 7.7727375 12.3633 7.31103 11.79375 7.31103L10.61415 7.31103L10.61415 9.3735z" fill="#9499A0">

    </path><path d="M9 3.7485375000000003C7.111335 3.7485375000000003 5.46225 3.84462 4.2981675 3.939015C3.4891575 4.0046175 2.8620825 4.6226400000000005 2.79 5.424405C2.7045525 6.37485 2.625 7.6282499999999995 2.625 8.9985C2.625 10.368825000000001 2.7045525 11.622225 2.79 12.5726625C2.8620825 13.374412500000002 3.4891575 13.992450000000002 4.2981675 14.058074999999999C5.46225 14.152425000000001 7.111335 14.2485 9 14.2485C10.888874999999999 14.2485 12.538050000000002 14.152425000000001 13.702200000000001 14.058037500000001C14.511074999999998 13.9924125 15.138000000000002 13.3746 15.210075 12.573037500000002C15.295499999999999 11.622975 15.375 10.3698375 15.375 8.9985C15.375 7.627237500000001 15.295499999999999 6.3740775 15.210075 5.4240375C15.138000000000002 4.622475 14.511074999999998 4.00464 13.702200000000001 3.9390374999999995C12.538050000000002 3.844635 10.888874999999999 3.7485375000000003 9 3.7485375000000003zM4.2072375 2.8176975C5.39424 2.7214425 7.074434999999999 2.6235375000000003 9 2.6235375000000003C10.925775 2.6235375000000003 12.606075 2.7214575 13.793099999999999 2.81772C15.141074999999999 2.92704 16.208849999999998 3.9695849999999995 16.330575 5.323297500000001C16.418174999999998 6.297675 16.5 7.585537500000001 16.5 8.9985C16.5 10.4115375 16.418174999999998 11.6994 16.330575 12.6738C16.208849999999998 14.027474999999999 15.141074999999999 15.0700125 13.793099999999999 15.1793625C12.606075 15.275625 10.925775 15.3735 9 15.3735C7.074434999999999 15.3735 5.39424 15.275625 4.2072375 15.179400000000001C2.859045 15.070049999999998 1.7912325 14.027212500000001 1.6695225000000002 12.673425C1.5818849999999998 11.69865 1.5 10.4106 1.5 8.9985C1.5 7.586475 1.5818849999999998 6.2984025 1.6695225000000002 5.3236725C1.7912325 3.96984 2.859045 2.9270175000000003 4.2072375 2.8176975z" fill="#9499A0"></path></svg>