<svg class="icon" viewBox="0 0 1024 1024" version="1.1" xmlns="http://www.w3.org/2000/svg" width="200" height="200"><path d="M594.112 872.768a34.048 34.048 0 0 1-29.12-10.816c-11.264-13.248-15.872-24.064-21.504-40.064l-1.92-5.632c-5.632-16.128-12.8-36.864-27.712-63.232-25.344-44.928-50.24-74.432-86.144-97.024-23.104-14.528-43.648-26.432-65.024-32.64V203.84a4570.24 4570.24 0 0 1 339.072 4.672c38.656 2.048 72 21.12 88.896 52.032 21.504 39.36 47.232 95.744 63.552 163.008 16.448 67.52 21.568 123.776 22.592 163.008 0.448 16.832-13.44 32.256-35.392 32.256h-197.248a32 32 0 0 0-28.608 46.336l0.128 0.32 0.64 1.28 2.56 5.568c2.176 4.8 5.12 11.776 8.384 20.16 6.528 17.088 13.568 39.04 16.768 60.416 4.928 33.344 3.712 60.16-9.344 84.992-14.08 26.688-30.016 33.728-40.576 34.944z m97.728-190.016h149.568c52.8 0 100.864-40.128 99.392-97.92a846.336 846.336 0 0 0-24.32-176.448 742.016 742.016 0 0 0-69.632-178.56c-29.248-53.44-84.48-82.304-141.824-85.248-55.68-2.88-138.24-5.952-235.712-5.952-96 0-183.488 3.008-244.672 5.76-66.368 3.136-123.328 51.392-130.944 119.872a1380.608 1380.608 0 0 0-0.768 296.704c7.68 72.768 70.4 121.792 140.032 121.792h97.728c13.76 0 28.16 5.504 62.976 27.392 24.064 15.168 42.432 35.264 64.448 74.368 11.968 21.12 17.472 36.864 22.976 52.736l2.048 5.888c6.656 18.88 14.336 38.4 33.216 60.416 19.456 22.72 51.456 36.736 85.184 32.768 35.2-4.096 67.776-26.88 89.792-68.672 22.208-42.112 21.888-84.8 16-124.288a343.04 343.04 0 0 0-15.488-60.608zM298.688 205.568v413.184H232.96c-40.512 0-72.448-27.712-76.352-64.512a1318.912 1318.912 0 0 1 0.64-282.88c3.904-34.816 32.896-61.248 70.4-62.976 20.8-0.96 44.736-1.92 71.04-2.816z" fill="#9499a0"></path></svg>